<svg xmlns="http://www.w3.org/2000/svg" viewBox="0 0 512 512" width="512" height="512">
  <defs>
    <radialGradient id="alifbee_glow" cx="50%" cy="50%" r="50%">
      <stop offset="0%" stop-color="#0f172a" />
      <stop offset="100%" stop-color="#020617" />
    </radialGradient>
  </defs>
  
  <!-- Background: Deep Blue/Black Gradient -->
  <rect width="100%" height="100%" fill="url(#alifbee_glow)" />
  
  <!-- Letter Ba (пе) - Authentic Noto Naskh Outline -->
  <!-- Centered and scaled to 512x512 -->
  <path fill="#34e0b3" 
        d="M380.5 220.2 
           C375.5 210.5 365.2 205.8 350.2 208.5 
           C335.5 211.2 325.2 225.5 320.5 240.2
           C315.8 255.5 305.5 265.2 290.5 268.5
           C260.5 275.2 220.5 270.5 190.5 260.2
           C160.5 250.2 140.5 230.2 130.5 210.2
           C125.5 200.2 115.5 195.5 105.5 198.5
           C90.5 203.5 85.5 215.5 88.5 230.5
           C95.5 265.5 130.5 300.5 180.5 315.5
           C230.5 330.5 300.5 325.5 350.5 305.5
           C400.5 285.5 420.5 250.5 420.5 230.5
           C420.5 225.5 410.5 220.5 400.5 220.5
           Z
           M256 380 
           A20 20 0 1 1 256 420
           A20 20 0 1 1 256 380 Z" />
</svg>
