<svg xmlns="http://www.w3.org/2000/svg" viewBox="0 0 512 512">
  <defs>
    <linearGradient id="grad" x1="0%" y1="0%" x2="100%" y2="100%">
      <stop offset="0%" style="stop-color:#10B981;stop-opacity:1" />
      <stop offset="100%" style="stop-color:#059669;stop-opacity:1" />
    </linearGradient>
  </defs>
  <rect width="512" height="512" rx="128" fill="url(#grad)" />
  <path d="M256 112c-79.5 0-144 64.5-144 144s64.5 144 144 144 144-64.5 144-144-64.5-144-144-144zm0 240c-53 0-96-43-96-96s43-96 96-96 96 43 96 96-43 96-96 96zm-48-96c0-26.5 21.5-48 48-48s48 21.5 48 48-21.5 48-48 48-48-21.5-48-48z" fill="#ffffff" fill-opacity="0.9"/>
  <circle cx="280" cy="230" r="24" fill="#ffffff"/>
</svg>
